<?xml version="1.0" encoding="UTF-8"?>
<svg version="1.1" xmlns="http://www.w3.org/2000/svg" width="325" height="96">
<path d="M0 0 C4.94503179 2.99304556 9.01412386 6.65103645 13.265625 10.5546875 C16.94145551 13.84193021 20.78356073 16.90097099 24.65234375 19.95703125 C28.59696768 23.38970732 28.59696768 23.38970732 30 26 C30.1171875 29.35546875 30.1171875 29.35546875 29.875 33.1875 C29.62635127 39.2753358 30.46815294 43.33273792 34.00390625 48.36328125 C34.33261719 48.90339844 34.66132812 49.44351563 35 50 C34.505 50.99 34.505 50.99 34 52 C32.58235006 51.06398754 31.16592432 50.1261208 29.75 49.1875 C28.96109375 48.66542969 28.1721875 48.14335938 27.359375 47.60546875 C26.58078125 47.07566406 25.8021875 46.54585937 25 46 C23.87078125 45.4121875 23.87078125 45.4121875 22.71875 44.8125 C20.40432452 42.37183313 20.58942523 40.30925615 20.6484375 37.04882812 C20.68195312 36.31083984 20.71546875 35.57285156 20.75 34.8125 C20.76804688 34.06291016 20.78609375 33.31332031 20.8046875 32.54101562 C20.85175891 30.6934629 20.92350234 28.84656841 21 27 C20.43023437 26.73832031 19.86046875 26.47664063 19.2734375 26.20703125 C16.82568666 24.9074522 14.79745558 23.40640784 12.625 21.6875 C11.83996094 21.07261719 11.05492187 20.45773438 10.24609375 19.82421875 C8.33185821 18.26952658 6.51173411 16.65712869 4.6875 15 C2.28901825 12.73901166 2.28901825 12.73901166 0.02539062 13.22509766 C-3.34414581 14.51426215 -5.8310884 17.01473804 -8.5 19.375 C-9.63458358 20.36293673 -10.76998049 21.34994029 -11.90625 22.3359375 C-12.43790771 22.80797607 -12.96956543 23.28001465 -13.51733398 23.76635742 C-15 25 -15 25 -17.37890625 26.38671875 C-19.557685 28.55499736 -19.41854417 30.42326555 -19.46289062 33.40039062 C-19.45451172 34.07263672 -19.44613281 34.74488281 -19.4375 35.4375 C-19.43067848 42.41591488 -19.43067848 42.41591488 -22.41015625 45.47265625 C-25 47 -25 47 -27 47 C-27 47.66 -27 48.32 -27 49 C-29.31 50.32 -31.62 51.64 -34 53 C-33.52921056 50.05756597 -32.66803822 48.49168352 -31 45.9375 C-28.46780238 41.57782013 -28.33780825 37.51568333 -28.25 32.5625 C-28.22035156 31.73556641 -28.19070312 30.90863281 -28.16015625 30.05664062 C-28.0901549 28.03826823 -28.04273299 26.01913377 -28 24 C-27.34 24 -26.68 24 -26 24 C-26 23.34 -26 22.68 -26 22 C-24.63671875 20.58984375 -24.63671875 20.58984375 -22.6875 18.9375 C-21.60275391 18.01710938 -21.60275391 18.01710938 -20.49609375 17.078125 C-19.67238281 16.39234375 -18.84867188 15.7065625 -18 15 C-17.06285156 14.21109375 -16.12570313 13.4221875 -15.16015625 12.609375 C-6.86683594 5.70755138 -6.86683594 5.70755138 -3 4 C-3 3.34 -3 2.68 -3 2 C-2.01 1.34 -1.02 0.68 0 0 Z " fill="#E1E1E1" transform="translate(34,1)"/>
<path d="M0 0 C1.92584888 0.95103649 3.79583211 2.01359777 5.65234375 3.09375 C5.65234375 3.75375 5.65234375 4.41375 5.65234375 5.09375 C6.31234375 5.09375 6.97234375 5.09375 7.65234375 5.09375 C10.60462423 10.16798208 12.51259552 14.0719876 11.65234375 20.09375 C9.42436337 26.42026113 6.30074338 30.06686132 0.40234375 33.34375 C-5.45133003 34.94020649 -10.44156625 34.828045 -15.91015625 32.09375 C-17.04453125 31.43375 -18.17890625 30.77375 -19.34765625 30.09375 C-19.34765625 29.43375 -19.34765625 28.77375 -19.34765625 28.09375 C-20.00765625 28.09375 -20.66765625 28.09375 -21.34765625 28.09375 C-24.77849784 21.86522642 -26.26723918 17.08265403 -24.34765625 10.09375 C-22.91015625 7.03125 -22.91015625 7.03125 -21.34765625 5.09375 C-20.68765625 5.09375 -20.02765625 5.09375 -19.34765625 5.09375 C-19.34765625 4.43375 -19.34765625 3.77375 -19.34765625 3.09375 C-12.8972623 -0.65920648 -7.28785502 -2.8132818 0 0 Z M-15.34765625 11.09375 C-16.04992621 14.88715903 -16.0555766 18.30090846 -15.34765625 22.09375 C-12.69833857 25.54589122 -11.10923095 25.97135407 -6.84765625 26.65625 C-2.48826666 25.95563382 -1.11884012 24.43547173 1.65234375 21.09375 C1.98234375 20.76375 2.31234375 20.43375 2.65234375 20.09375 C3.17231394 15.67400336 2.91308896 13.54190582 0.65234375 9.65625 C-2.5305343 6.91078438 -2.5305343 6.91078438 -6.34765625 6.46875 C-10.46764196 6.85109716 -12.79885954 7.66880441 -15.34765625 11.09375 Z " fill="#E0E0DE" transform="translate(251.34765625,31.90625)"/>
<path d="M0 0 C3.155625 -0.061875 6.31125 -0.12375 9.5625 -0.1875 C10.5429126 -0.21481201 11.5233252 -0.24212402 12.53344727 -0.27026367 C18.81054417 -0.32945155 23.84271878 0.21791139 28.7421875 4.53515625 C33.20849936 10.55697673 33.71038664 14.54608805 33 22 C32.00185155 25.48398312 30.39659089 27.98755645 27.39257812 30.1652832 C21.56806307 33.32735925 16.52558386 33.482176 10 33.25 C6.7 33.1675 3.4 33.085 0 33 C0 22.11 0 11.22 0 0 Z M8 8 C7.89997545 10.65653443 7.86122537 13.28129272 7.875 15.9375 C7.87113281 16.67935547 7.86726562 17.42121094 7.86328125 18.18554688 C7.78260332 22.22322878 7.78260332 22.22322878 9 26 C13.92127034 26.16682272 17.50343896 26.24828052 22 24 C22 23.34 22 22.68 22 22 C22.66 22 23.32 22 24 22 C25.02703748 16.44506076 25.02703748 16.44506076 24 11 C23.34 11 22.68 11 22 11 C22 10.34 22 9.68 22 9 C18.97159851 7.24671493 16.80125633 6.74906807 13.3125 6.8125 C12.52488281 6.81894531 11.73726562 6.82539062 10.92578125 6.83203125 C8.99300636 6.79266331 8.99300636 6.79266331 8 8 Z " fill="#E5E5E4" transform="translate(191,32)"/>
<path d="M0 0 C5.73399015 2.86699507 5.73399015 2.86699507 8 6 C8.62941325 9.24343575 8.69642579 12.45275069 8.75 15.75 C8.77964844 16.63816406 8.80929688 17.52632812 8.83984375 18.44140625 C8.91036918 20.62769449 8.96314637 22.81292768 9 25 C9.66 25.33 10.32 25.66 11 26 C11 26.66 11 27.32 11 28 C11.66 28 12.32 28 13 28 C13 28.66 13 29.32 13 30 C13.66 30 14.32 30 15 30 C15.33 25.05 15.66 20.1 16 15 C20.40780459 16.10195115 22.28415489 17.572218 25.75 20.4375 C27.22726563 21.64212891 27.22726563 21.64212891 28.734375 22.87109375 C29.48203125 23.57363281 30.2296875 24.27617188 31 25 C31 25.66 31 26.32 31 27 C28.69 27 26.38 27 24 27 C24.02960396 35.34831714 25.65233355 41.30371333 29.72265625 48.6015625 C31 51 31 51 31 53 C26.95264468 51.59983383 24.01519578 49.6818763 20.6875 47 C19.36298828 45.948125 19.36298828 45.948125 18.01171875 44.875 C17.34785156 44.25625 16.68398438 43.6375 16 43 C16 42.34 16 41.68 16 41 C15.46375 40.7525 14.9275 40.505 14.375 40.25 C11.4176018 38.69347463 8.70275949 36.96564327 6 35 C6 34.34 6 33.68 6 33 C5.34 33 4.68 33 4 33 C4 32.34 4 31.68 4 31 C2.68 30.34 1.36 29.68 0 29 C0 19.43 0 9.86 0 0 Z " fill="#DEDEDE" transform="translate(39,42)"/>
<path d="M0 0 C0.22437536 3.9827585 0.3866231 7.96302306 0.49438477 11.95068359 C0.5613211 13.96453152 0.67575397 15.97662057 0.79101562 17.98828125 C1.00844243 27.60337776 1.00844243 27.60337776 -1.85009766 31.56225586 C-4.1325206 33.59977649 -6.45029461 35.31374492 -9 37 C-9.9796875 37.82628906 -10.959375 38.65257812 -11.96875 39.50390625 C-17.5905442 44.07595184 -23.25262899 48.5865867 -29 53 C-29.65234375 51.25 -29.65234375 51.25 -30 49 C-29.00390625 47.0625 -29.00390625 47.0625 -27.5625 45 C-24.2092299 39.45135694 -24.5196035 34.30920732 -25 28 C-27.475 27.01 -27.475 27.01 -30 26 C-30 25.34 -30 24.68 -30 24 C-29.34 24 -28.68 24 -28 24 C-28 23.34 -28 22.68 -28 22 C-24.53846154 19 -24.53846154 19 -22 19 C-22 18.34 -22 17.68 -22 17 C-19 15 -19 15 -16 15 C-16 19.95 -16 24.9 -16 30 C-15.01 30 -14.02 30 -13 30 C-13 29.34 -13 28.68 -13 28 C-12.01 27.34 -11.02 26.68 -10 26 C-8.67695095 21.72979979 -8.67971842 17.13081826 -8.4375 12.6875 C-8.39431641 11.94693359 -8.35113281 11.20636719 -8.30664062 10.44335938 C-8.20129568 8.62908536 -8.10021684 6.8145645 -8 5 C-7.01 4.67 -6.02 4.34 -5 4 C-5 3.34 -5 2.68 -5 2 C-2 0 -2 0 0 0 Z " fill="#DFDFDF" transform="translate(30,42)"/>
<path d="M0 0 C1.63133835 0.70104357 3.2187558 1.50289025 4.79296875 2.32421875 C4.13296875 4.30421875 3.47296875 6.28421875 2.79296875 8.32421875 C1.52839844 8.19853516 1.52839844 8.19853516 0.23828125 8.0703125 C-1.40527344 7.91755859 -1.40527344 7.91755859 -3.08203125 7.76171875 C-4.17257812 7.65730469 -5.263125 7.55289063 -6.38671875 7.4453125 C-9.15855148 7.09782471 -9.15855148 7.09782471 -11.20703125 8.32421875 C-11.20703125 9.31421875 -11.20703125 10.30421875 -11.20703125 11.32421875 C-10.47097656 11.494375 -9.73492187 11.66453125 -8.9765625 11.83984375 C0.88877848 14.2898888 0.88877848 14.2898888 4.79296875 18.32421875 C6.01685795 20.77199714 5.80933275 22.05812416 5.54296875 24.76171875 C5.4759375 25.54417969 5.40890625 26.32664062 5.33984375 27.1328125 C4.69315668 29.72417996 3.84074454 30.6556607 1.79296875 32.32421875 C-3.33101513 35.27439129 -9.73886566 35.18032449 -15.375 33.7890625 C-18.06409392 32.77441469 -19.8616003 31.95412224 -21.26953125 29.38671875 C-21.1946659 26.91616205 -20.35641289 25.48325329 -19.20703125 23.32421875 C-18.54316406 23.55238281 -17.87929688 23.78054687 -17.1953125 24.015625 C-15.87080078 24.44681641 -15.87080078 24.44681641 -14.51953125 24.88671875 C-13.64941406 25.17675781 -12.77929688 25.46679688 -11.8828125 25.765625 C-8.96072051 26.37563836 -7.06302572 26.10125508 -4.20703125 25.32421875 C-3.87703125 24.33421875 -3.54703125 23.34421875 -3.20703125 22.32421875 C-3.93148438 22.1540625 -4.6559375 21.98390625 -5.40234375 21.80859375 C-16.50596363 19.02528637 -16.50596363 19.02528637 -20.20703125 15.32421875 C-21.32446532 12.23824798 -21.66035803 9.57887253 -21.20703125 6.32421875 C-15.92647673 -0.76681161 -8.36655712 -2.56179536 0 0 Z " fill="#D8D8D7" transform="translate(319.20703125,31.67578125)"/>
<path d="M0 0 C2.0625797 1.21629922 3.87274863 2.29716301 5.57421875 3.984375 C5.57421875 4.974375 5.57421875 5.964375 5.57421875 6.984375 C4.91421875 6.984375 4.25421875 6.984375 3.57421875 6.984375 C3.57421875 7.644375 3.57421875 8.304375 3.57421875 8.984375 C1.76171875 9.609375 1.76171875 9.609375 -0.42578125 9.984375 C-1.41578125 9.324375 -2.40578125 8.664375 -3.42578125 7.984375 C-5.3779275 7.66958923 -5.3779275 7.66958923 -7.42578125 7.734375 C-8.10640625 7.72921875 -8.78703125 7.7240625 -9.48828125 7.71875 C-11.74994132 7.88519897 -11.74994132 7.88519897 -14.42578125 9.984375 C-15.63839002 13.62220132 -15.82122677 16.16173499 -15.42578125 19.984375 C-13.50911458 23.06770833 -13.50911458 23.06770833 -10.42578125 24.984375 C-5.40473411 25.70166745 -2.50756468 24.95294476 1.57421875 21.984375 C5.51249035 25.32593879 5.51249035 25.32593879 5.76171875 27.984375 C3.82719741 31.2425162 1.03130797 32.7266653 -2.42578125 33.984375 C-8.32992232 34.93028493 -13.23231617 34.02206212 -18.42578125 30.984375 C-22.98369918 26.53963336 -25.57065376 23.19244469 -25.73828125 16.734375 C-25.69169075 11.64269907 -24.86345125 8.89949917 -21.42578125 4.984375 C-20.78640625 4.241875 -20.14703125 3.499375 -19.48828125 2.734375 C-14.09072184 -1.84537238 -6.5361732 -2.73656205 0 0 Z " fill="#DDDDDC" transform="translate(290.42578125,32.015625)"/>
<path d="M0 0 C2.97 0 5.94 0 9 0 C9.47050781 0.95261719 9.94101563 1.90523437 10.42578125 2.88671875 C11.05457916 4.15369961 11.68349148 5.42062369 12.3125 6.6875 C12.62123047 7.31333984 12.92996094 7.93917969 13.24804688 8.58398438 C15.0238106 12.15420407 16.89532729 15.61309592 19 19 C19.23710693 18.45996338 19.47421387 17.91992676 19.71850586 17.36352539 C20.78909926 14.92878456 21.86325029 12.49562968 22.9375 10.0625 C23.31068359 9.21236328 23.68386719 8.36222656 24.06835938 7.48632812 C24.42607422 6.67744141 24.78378906 5.86855469 25.15234375 5.03515625 C25.48226318 4.2862915 25.81218262 3.53742676 26.15209961 2.76586914 C27 1 27 1 28 0 C30.67058851 -0.14115161 33.32432238 -0.04247107 36 0 C34.38736146 6.16211475 32.29676135 11.62649889 29.33984375 17.26171875 C26.84979906 22.35070222 24.95662171 27.68798022 23 33 C20.03 33 17.06 33 14 33 C13.75354736 32.41621582 13.50709473 31.83243164 13.25317383 31.23095703 C12.10962701 28.52754295 10.96108829 25.82627578 9.8125 23.125 C9.42513672 22.2071875 9.03777344 21.289375 8.63867188 20.34375 C6.26680015 14.77671222 3.72866743 9.35500344 0.92456055 3.99169922 C0 2 0 2 0 0 Z " fill="#DFDFDF" transform="translate(99,32)"/>
<path d="M0 0 C6.93 0 13.86 0 21 0 C21.13483705 4.5634852 21.23407207 9.12299441 21.3125 13.6875 C21.35439453 14.98107422 21.39628906 16.27464844 21.43945312 17.60742188 C21.45556641 18.85458984 21.47167969 20.10175781 21.48828125 21.38671875 C21.51446533 22.53358154 21.54064941 23.68044434 21.56762695 24.86206055 C20.82802613 28.95070113 19.14925694 30.3912761 16 33 C12.79997581 34.6000121 9.48065124 34.36229827 6 34 C2.53107742 32.71521386 0.60468364 31.9619967 -1.375 28.8125 C-1.58125 28.214375 -1.7875 27.61625 -2 27 C-0.68 25.68 0.64 24.36 2 23 C2.53625 23.33 3.0725 23.66 3.625 24 C6.49214521 25.388057 6.49214521 25.388057 12 25 C12.495 16.09 12.495 16.09 13 7 C8.71 7 4.42 7 0 7 C0 4.69 0 2.38 0 0 Z " fill="#DFDFDF" transform="translate(150,32)"/>
<path d="M0 0 C2.97 0 5.94 0 9 0 C9 10.89 9 21.78 9 33 C6.03 33 3.06 33 0 33 C0 22.11 0 11.22 0 0 Z " fill="#DEDEDD" transform="translate(137,32)"/>
<path d="M0 0 C1.63133835 0.70104357 3.2187558 1.50289025 4.79296875 2.32421875 C4.13296875 4.30421875 3.47296875 6.28421875 2.79296875 8.32421875 C1.52839844 8.19853516 1.52839844 8.19853516 0.23828125 8.0703125 C-1.40527344 7.91755859 -1.40527344 7.91755859 -3.08203125 7.76171875 C-4.17257812 7.65730469 -5.263125 7.55289063 -6.38671875 7.4453125 C-9.15855148 7.09782471 -9.15855148 7.09782471 -11.20703125 8.32421875 C-11.20703125 9.31421875 -11.20703125 10.30421875 -11.20703125 11.32421875 C-9.22703125 11.98421875 -7.24703125 12.64421875 -5.20703125 13.32421875 C-5.86703125 15.30421875 -6.52703125 17.28421875 -7.20703125 19.32421875 C-11.23025819 19.64607691 -13.8427439 19.47937818 -17.58203125 17.88671875 C-20.7681728 14.77643771 -21.29658659 12.87173062 -21.51171875 8.51171875 C-21.20703125 6.32421875 -21.20703125 6.32421875 -19.01953125 3.38671875 C-13.07198477 -0.97481533 -7.2262982 -2.21265414 0 0 Z " fill="#E2E2E0" transform="translate(319.20703125,31.67578125)"/>
<path d="M0 0 C1.65 1.32 3.3 2.64 5 4 C4.8125 5.875 4.8125 5.875 4 8 C1.4375 9.25 1.4375 9.25 -1 10 C-1 9.34 -1 8.68 -1 8 C-1.99 7.67 -2.98 7.34 -4 7 C-4 6.34 -4 5.68 -4 5 C-6.31 5 -8.62 5 -11 5 C-11 4.67 -11 4.34 -11 4 C-9.9275 3.896875 -8.855 3.79375 -7.75 3.6875 C-4.14179128 3.02599507 -2.63604977 2.42516579 0 0 Z " fill="#CACAC9" transform="translate(291,54)"/>
<path d="M0 0 C0.66 0 1.32 0 2 0 C2.75 2.25 2.75 2.25 3 5 C0.75010389 7.916532 -1.63426067 9.55754029 -5 11 C-4.32902328 6.80639551 -2.1441606 3.59665648 0 0 Z " fill="#AFAFAF" transform="translate(5,43)"/>
<path d="M0 0 C0 3 0 3 -1.3125 4.38671875 C-2.875 5.59114583 -4.4375 6.79557292 -6 8 C-6.66 7.67 -7.32 7.34 -8 7 C-5.36 4.69 -2.72 2.38 0 0 Z " fill="#A7A7A7" transform="translate(19,14)"/>
<path d="M0 0 C0.99 0.33 1.98 0.66 3 1 C2.360625 1.598125 1.72125 2.19625 1.0625 2.8125 C-1.20310389 4.90810337 -1.20310389 4.90810337 -2 8 C-2.66 6.68 -3.32 5.36 -4 4 C-2.68 2.68 -1.36 1.36 0 0 Z " fill="#9C9C9B" transform="translate(152,55)"/>
</svg>
